# xmcd CD database file
# Copyright (C) 1997 Ti Kan
# 
# Track frame offsets:
#     150
#     20817
#     42877
#     59860
#     83790
#     102465
#     119387
#     141120
#     179922
#     203237
#     222810
#     248315
#     281940
#     305845
# 
# Disc length: 4468 seconds
# 
# Revision: 1
# Processed by: cddbd v1.4b41PL1 Copyright (c) Steve Scherf et al.
# Submitted via: DiscPlay 4.0.3
# 
DISCID=de11720e
DTITLE=The Canton Spirituals - Living the Dream - Live In Washington D.C.
DYEAR=1900
DGENRE=
TTITLE0=Tell Me How Long
TTITLE1=Nobody
TTITLE2=Heaven Is Looking (Down On Me)
TTITLE3=Clean Up
TTITLE4=Glad I've Got Jesus
TTITLE5=When He Comes
TTITLE6=Flowers
TTITLE7=Hallelujah Square
TTITLE8=Cool Change
TTITLE9=I Want You To Move
TTITLE10=Smoothin'
TTITLE11=Father I'm Coming Home
TTITLE12=Get Me Up In Jesus
TTITLE13=God Loves You
EXTD=
EXTT0=
EXTT1=
EXTT2=
EXTT3=
EXTT4=
EXTT5=
EXTT6=
EXTT7=
EXTT8=
EXTT9=
EXTT10=
EXTT11=
EXTT12=
EXTT13=
PLAYORDER=
